<mxfile host="app.diagrams.net" modified="2023-07-20T08:51:03.863Z" agent="5.0 (Windows NT 10.0; Win64; x64) AppleWebKit/537.36 (KHTML, like Gecko) Chrome/114.0.0.0 Safari/537.36" etag="oFGS06cDup1YSzDkwgZN" version="20.8.13" type="github">
  <diagram name="Page-1" id="2J_9FyxqPTRixcqzXdzy">
    <mxGraphModel dx="1900" dy="625" grid="1" gridSize="10" guides="1" tooltips="1" connect="1" arrows="1" fold="1" page="1" pageScale="1" pageWidth="850" pageHeight="1100" math="0" shadow="0">
      <root>
        <mxCell id="0" />
        <mxCell id="1" parent="0" />
        <mxCell id="Iels-fT38VjhoUJIh57o-5" value="" style="edgeStyle=orthogonalEdgeStyle;rounded=0;orthogonalLoop=1;jettySize=auto;html=1;" edge="1" parent="1" source="Iels-fT38VjhoUJIh57o-1" target="Iels-fT38VjhoUJIh57o-4">
          <mxGeometry relative="1" as="geometry" />
        </mxCell>
        <mxCell id="Iels-fT38VjhoUJIh57o-1" value="&lt;b&gt;/opt/lilee/bin/lilee-multipath&lt;/b&gt;&lt;br&gt;1. pings GW1 every second&lt;br&gt;2. if GW1 offline and GW2 online, then change route to GW2" style="whiteSpace=wrap;html=1;" vertex="1" parent="1">
          <mxGeometry x="110" y="260" width="230" height="110" as="geometry" />
        </mxCell>
        <mxCell id="Iels-fT38VjhoUJIh57o-3" value="" style="edgeStyle=orthogonalEdgeStyle;rounded=0;orthogonalLoop=1;jettySize=auto;html=1;" edge="1" parent="1" source="Iels-fT38VjhoUJIh57o-2" target="Iels-fT38VjhoUJIh57o-1">
          <mxGeometry relative="1" as="geometry" />
        </mxCell>
        <mxCell id="Iels-fT38VjhoUJIh57o-2" value="&lt;b&gt;/etc/init.d/lilee-multipath&lt;/b&gt;&lt;br&gt;service file to call /opt/lilee/bin/lilee-multipath&lt;br&gt;allows to status | restart| stop the service" style="whiteSpace=wrap;html=1;" vertex="1" parent="1">
          <mxGeometry x="85" y="150" width="280" height="60" as="geometry" />
        </mxCell>
        <mxCell id="Iels-fT38VjhoUJIh57o-9" value="" style="edgeStyle=orthogonalEdgeStyle;rounded=0;orthogonalLoop=1;jettySize=auto;html=1;" edge="1" parent="1" source="Iels-fT38VjhoUJIh57o-4" target="Iels-fT38VjhoUJIh57o-8">
          <mxGeometry relative="1" as="geometry" />
        </mxCell>
        <mxCell id="Iels-fT38VjhoUJIh57o-4" value="&lt;b&gt;/etc/sysconfig/network-scripts/ifcfg-eth0&lt;/b&gt;&lt;br&gt;gateway=10.255.255.254" style="whiteSpace=wrap;html=1;" vertex="1" parent="1">
          <mxGeometry x="-40" y="420" width="260" height="60" as="geometry" />
        </mxCell>
        <mxCell id="Iels-fT38VjhoUJIh57o-10" value="" style="edgeStyle=orthogonalEdgeStyle;rounded=0;orthogonalLoop=1;jettySize=auto;html=1;" edge="1" parent="1" source="Iels-fT38VjhoUJIh57o-6" target="Iels-fT38VjhoUJIh57o-8">
          <mxGeometry relative="1" as="geometry" />
        </mxCell>
        <mxCell id="Iels-fT38VjhoUJIh57o-6" value="&lt;b&gt;route add / delete&lt;/b&gt;&lt;br&gt;use route to update the gateway" style="whiteSpace=wrap;html=1;" vertex="1" parent="1">
          <mxGeometry x="240" y="420" width="260" height="60" as="geometry" />
        </mxCell>
        <mxCell id="Iels-fT38VjhoUJIh57o-7" value="" style="edgeStyle=orthogonalEdgeStyle;rounded=0;orthogonalLoop=1;jettySize=auto;html=1;entryX=0.603;entryY=-0.043;entryDx=0;entryDy=0;entryPerimeter=0;exitX=0.5;exitY=1;exitDx=0;exitDy=0;" edge="1" parent="1" source="Iels-fT38VjhoUJIh57o-1" target="Iels-fT38VjhoUJIh57o-6">
          <mxGeometry relative="1" as="geometry">
            <mxPoint x="235" y="380" as="sourcePoint" />
            <mxPoint x="100" y="430" as="targetPoint" />
          </mxGeometry>
        </mxCell>
        <mxCell id="Iels-fT38VjhoUJIh57o-8" value="restart network service" style="whiteSpace=wrap;html=1;" vertex="1" parent="1">
          <mxGeometry x="170" y="560" width="120" height="60" as="geometry" />
        </mxCell>
        <mxCell id="Iels-fT38VjhoUJIh57o-11" value="Multipath Diagram" style="text;html=1;align=center;verticalAlign=middle;resizable=0;points=[];autosize=1;strokeColor=none;fillColor=none;" vertex="1" parent="1">
          <mxGeometry x="160" y="110" width="120" height="30" as="geometry" />
        </mxCell>
        <mxCell id="Iels-fT38VjhoUJIh57o-12" value="CTC LED&amp;nbsp;" style="text;html=1;align=center;verticalAlign=middle;resizable=0;points=[];autosize=1;strokeColor=none;fillColor=none;" vertex="1" parent="1">
          <mxGeometry x="560" y="105" width="80" height="30" as="geometry" />
        </mxCell>
        <mxCell id="Iels-fT38VjhoUJIh57o-15" value="" style="edgeStyle=orthogonalEdgeStyle;rounded=0;orthogonalLoop=1;jettySize=auto;html=1;" edge="1" parent="1" source="Iels-fT38VjhoUJIh57o-13" target="Iels-fT38VjhoUJIh57o-14">
          <mxGeometry relative="1" as="geometry" />
        </mxCell>
        <mxCell id="Iels-fT38VjhoUJIh57o-13" value="&lt;b&gt;/opt/lilee/bin/wiuZCC&lt;/b&gt;&lt;br&gt;1. add function ctc_fail_led_on()&lt;br&gt;2. in ctc_fail_led_on() identify device WMS/STS/etc. and call respective LED interface" style="whiteSpace=wrap;html=1;" vertex="1" parent="1">
          <mxGeometry x="490" y="150" width="260" height="60" as="geometry" />
        </mxCell>
        <mxCell id="Iels-fT38VjhoUJIh57o-14" value="wms/sts/etc LED interface" style="whiteSpace=wrap;html=1;" vertex="1" parent="1">
          <mxGeometry x="510" y="240" width="220" height="60" as="geometry" />
        </mxCell>
      </root>
    </mxGraphModel>
  </diagram>
</mxfile>
